<?xml version="1.0" standalone="no"?>
<!DOCTYPE svg PUBLIC "-//W3C//DTD SVG 1.1//EN" "http://www.w3.org/Graphics/SVG/1.1/DTD/svg11.dtd" >
<svg xmlns="http://www.w3.org/2000/svg" xmlns:xlink="http://www.w3.org/1999/xlink" version="1.1">
<metadata>
Created by FontForge 20150102 at Tue Feb 24 12:39:42 2015
 By uniteet7
Copyright 1996 TypeMarket, (095)142-77-12, Designer: S. Shanovich
</metadata>
<defs>
<font id="heliosextthinc" horiz-adv-x="653" >
  <font-face 
    font-family="heliosextthinc"
    font-weight="100"
    font-stretch="normal"
    units-per-em="1000"
    panose-1="0 0 2 0 0 0 0 0 0 0"
    ascent="744"
    descent="-256"
    x-height="524"
    cap-height="726"
    bbox="-54 -256 1228 1000"
    underline-thickness="51"
    underline-position="-45"
    unicode-range="U+0020-2122"
  />
<missing-glyph horiz-adv-x="500" 
 />
    <glyph glyph-name=".notdef" horiz-adv-x="500" 
 />
    <glyph glyph-name=".null" horiz-adv-x="0" 
 />
    <glyph glyph-name="nonmarkingreturn" horiz-adv-x="333" 
 />
    <glyph glyph-name="space" unicode=" " horiz-adv-x="305" 
 />
    <glyph glyph-name="space" unicode="&#xa0;" horiz-adv-x="305" 
 />
    <glyph glyph-name="exclam" unicode="!" horiz-adv-x="294" 
d="M124 0v51h47v-51h-47zM142 179l-14 288v259h39v-260l-14 -287h-11z" />
    <glyph glyph-name="quotedbl" unicode="&#x22;" horiz-adv-x="258" 
d="M65 704v-246h-14v246h14zM208 704v-246h-15v246h15z" />
    <glyph glyph-name="numbersign" unicode="#" horiz-adv-x="781" 
d="M430 714l-86 -251h177l89 251h26l-89 -251h165l-4 -14h-166l-65 -186h175l-4 -14h-176l-88 -249h-26l89 249h-181l-89 -249h-25l88 249h-170l4 14h170l68 186h-184l5 14h182l90 251h25zM515 449h-178l-65 -186h178z" />
    <glyph glyph-name="dollar" unicode="$" horiz-adv-x="654" 
d="M44 193h36q7 -73 69.5 -119t170.5 -50v323q-137 15 -197.5 57.5t-60.5 118.5q0 81 64.5 130.5t193.5 55.5v82h16v-82q256 -13 266 -165h-34q-7 60 -68 99.5t-164 43.5v-316q158 -19 217 -55t59 -120q0 -92 -66.5 -141t-209.5 -56v-93h-16v93q-132 5 -201 56.5t-75 137.5z
M320 375v315q-104 -5 -162 -48.5t-58 -109.5q0 -70 51.5 -105t168.5 -52zM336 25q115 2 177.5 45t62.5 116q0 77 -53.5 109t-186.5 46v-316z" />
    <glyph glyph-name="percent" unicode="%" horiz-adv-x="855" 
d="M49 545q0 94 37.5 138t115.5 44t115.5 -44t37.5 -138t-37.5 -139t-115.5 -45t-115.5 45t-37.5 139zM70 545q0 -82 35 -128.5t97 -46.5q63 0 97 46.5t34 128.5q0 81 -34.5 127t-96.5 46q-61 0 -96.5 -46.5t-35.5 -126.5zM500 163q0 184 154 184q78 0 115 -45t37 -139
t-37 -138.5t-115 -44.5q-154 0 -154 183zM523 163q0 -80 35 -126.5t96 -46.5q62 0 96.5 46t34.5 127q0 82 -34.5 128t-96.5 46t-96.5 -46t-34.5 -128zM206 -20l426 747h17l-426 -747h-17z" />
    <glyph glyph-name="ampersand" unicode="&#x26;" horiz-adv-x="754" 
d="M576 126l-291 271q-98 -47 -144.5 -96t-46.5 -111q0 -77 63 -132t160 -55q139 0 259 123zM710 0l-112 107q-64 -67 -130.5 -97t-147.5 -30q-122 0 -193.5 58t-71.5 149q0 68 47.5 119t165.5 110q-59 58 -82 95.5t-23 74.5q0 68 40.5 104.5t115.5 36.5q72 0 113.5 -36
t41.5 -96q0 -52 -35 -91.5t-126 -91.5l282 -262q56 115 62 171h34q-5 -80 -74 -191l132 -130h-39zM294 434q148 75 148 161q0 45 -36.5 78t-88.5 33q-53 0 -89.5 -33.5t-36.5 -82.5q0 -35 26.5 -76t76.5 -80z" />
    <glyph glyph-name="quotesingle" unicode="'" horiz-adv-x="114" 
d="M64 704v-246h-13v246h13z" />
    <glyph glyph-name="parenleft" unicode="(" horiz-adv-x="288" 
d="M274 733q-167 -237 -167 -472q0 -231 167 -468h-21q-189 246 -189 468q0 228 189 472h21z" />
    <glyph glyph-name="parenright" unicode=")" horiz-adv-x="288" 
d="M20 -207l4 3q156 222 156 465q0 245 -160 472h21q182 -235 182 -472q0 -231 -182 -468h-21z" />
    <glyph glyph-name="asterisk" unicode="*" horiz-adv-x="494" 
d="M160 443l-23 17l90 121l-142 46l6 23l143 -45v148h26v-148l143 45l6 -23l-142 -46l90 -121l-23 -17l-87 122z" />
    <glyph glyph-name="plus" unicode="+" horiz-adv-x="847" 
d="M438 587v-274h277v-30h-277v-279h-30v279h-276v30h276v274h30z" />
    <glyph glyph-name="comma" unicode="," horiz-adv-x="306" 
d="M130 0v72h47v-124q0 -52 -10.5 -75.5t-36.5 -31.5v28q16 9 19.5 22.5t3.5 41.5v67h-23z" />
    <glyph glyph-name="hyphen" unicode="-" horiz-adv-x="455" 
d="M59 247v26h337v-26h-337z" />
    <glyph glyph-name="hyphen" unicode="&#xad;" horiz-adv-x="455" 
d="M59 247v26h337v-26h-337z" />
    <glyph glyph-name="period" unicode="." horiz-adv-x="306" 
d="M130 0v50h47v-50h-47z" />
    <glyph glyph-name="slash" unicode="/" horiz-adv-x="308" 
d="M23 -98h-23l284 844h24z" />
    <glyph glyph-name="zero" unicode="0" horiz-adv-x="654" 
d="M56 357q0 369 271 369q270 0 270 -369t-270 -369q-271 0 -271 369zM92 357q0 -166 60.5 -253t174.5 -87t174 87t60 253t-60 252.5t-174 86.5t-174.5 -86.5t-60.5 -252.5z" />
    <glyph glyph-name="one" unicode="1" horiz-adv-x="442" 
d="M290 0v637q-11 -21 -32 -36.5t-42.5 -23t-52.5 -12t-51 -5t-50 -0.5v28h56q84 0 128 39.5t44 98.5h36v-726h-36z" />
    <glyph glyph-name="two" unicode="2" 
d="M53 0q5 88 72 159q32 35 209 135q18 10 48 27l45 25.5t32 19.5t27 21q60 56 60 132q0 81 -58.5 129.5t-154.5 48.5q-107 0 -169.5 -54.5t-62.5 -142.5h-36q0 97 73 161.5t193 64.5t185.5 -56t65.5 -153q0 -35 -10 -63t-24.5 -49t-45.5 -44.5t-58.5 -40t-78.5 -44.5
q-50 -28 -75.5 -42.5t-62.5 -37.5t-55 -39t-38.5 -37.5t-29.5 -43t-11 -45.5h482v-31h-522z" />
    <glyph glyph-name="three" unicode="3" 
d="M52 205h36q0 -84 64.5 -135t174.5 -51q107 0 168 48.5t61 133.5q0 70 -70 114t-186 44h-27v28h27q38 0 76.5 9t73.5 26.5t56.5 49t21.5 71.5q0 76 -53 115t-151 39q-92 0 -152 -50t-60 -129h-36q0 92 67 150t183 58q238 0 238 -176q0 -67 -53.5 -122t-139.5 -55
q101 0 162.5 -50.5t61.5 -121.5q0 -102 -67.5 -157.5t-199.5 -55.5q-134 0 -205 58.5t-71 158.5z" />
    <glyph glyph-name="four" unicode="4" 
d="M440 0v195h-411v28l401 503h44v-503h130v-28h-130v-195h-34zM440 223v464l-373 -464h373z" />
    <glyph glyph-name="five" unicode="5" horiz-adv-x="654" 
d="M66 170h38q12 -66 71 -110t152 -44q106 0 174.5 65t68.5 158q0 97 -63 151t-174 54q-76 0 -122.5 -24.5t-87.5 -70.5h-37l64 376h404v-29h-377l-54 -308q73 84 225 84q122 0 190 -60t68 -169q0 -116 -74.5 -186t-208.5 -70q-112 0 -177.5 50t-79.5 133z" />
    <glyph glyph-name="six" unicode="6" 
d="M91 285h4q11 61 55 101t96 54.5t111 14.5q119 0 185 -62t66 -172q0 -112 -71.5 -172.5t-203.5 -60.5q-147 0 -212.5 85t-65.5 276q0 195 70.5 286t221.5 91q104 0 168 -44t68 -106h-36q-10 54 -65 87.5t-139 33.5q-123 0 -187.5 -82t-64.5 -240v-90zM107 220
q0 -92 63.5 -147.5t165.5 -55.5q106 0 171 55.5t65 149.5t-60.5 149.5t-161.5 55.5q-110 0 -176.5 -56.5t-66.5 -150.5z" />
    <glyph glyph-name="seven" unicode="7" 
d="M230 0q81 395 343 697h-503v29h539v-29q-295 -360 -343 -697h-36z" />
    <glyph glyph-name="eight" unicode="8" horiz-adv-x="654" 
d="M273 389h1q-106 15 -144.5 59.5t-38.5 110.5q0 80 60.5 123.5t175.5 43.5t175.5 -43.5t60.5 -123.5q0 -66 -38.5 -109.5t-137.5 -60.5q109 -10 160.5 -65t51.5 -138q0 -198 -272 -198t-272 198q0 84 52.5 138.5t165.5 64.5zM127 549q0 -69 53 -107.5t147 -38.5t147 38.5
t53 107.5q0 71 -52.5 109.5t-147.5 38.5t-147.5 -38.5t-52.5 -109.5zM91 194q0 -84 63.5 -130.5t173.5 -46.5t172.5 46.5t62.5 130.5q0 82 -65 131.5t-171 49.5t-171 -49.5t-65 -131.5z" />
    <glyph glyph-name="nine" unicode="9" 
d="M559 429q-37 -170 -262 -170q-119 0 -185 62t-66 172q0 112 71.5 172.5t203.5 60.5q147 0 212.5 -85t65.5 -276q0 -195 -70.5 -286t-221.5 -91q-104 0 -168 44t-68 106h36q10 -54 65 -87.5t139 -33.5q123 0 187.5 82t64.5 240v90h-4zM547 494q0 92 -63.5 147.5
t-165.5 55.5q-106 0 -171 -55.5t-65 -149.5t60.5 -149.5t161.5 -55.5q110 0 176.5 56.5t66.5 150.5z" />
    <glyph glyph-name="colon" unicode=":" horiz-adv-x="294" 
d="M124 437v51h47v-51h-47zM124 0v51h47v-51h-47z" />
    <glyph glyph-name="semicolon" unicode=";" horiz-adv-x="294" 
d="M124 0v52h47v-104q0 -52 -10.5 -75.5t-36.5 -31.5v28q16 9 19.5 22.5t3.5 41.5v67h-23zM124 436v52h47v-52h-47z" />
    <glyph glyph-name="less" unicode="&#x3c;" horiz-adv-x="848" 
d="M136 284v21l573 231v-33l-538 -209l538 -209v-33z" />
    <glyph glyph-name="equal" unicode="=" horiz-adv-x="847" 
d="M715 411v-24h-583v24h583zM715 217v-24h-583v24h583z" />
    <glyph glyph-name="greater" unicode="&#x3e;" horiz-adv-x="848" 
d="M708 284l-573 -232v33l538 209l-538 209v33l573 -231v-21z" />
    <glyph glyph-name="question" unicode="?" horiz-adv-x="586" 
d="M355 309q-38 -30 -55.5 -56.5t-17.5 -68.5h-41v12q0 47 18 72t70 66q9 7 38.5 29t39.5 30.5t30 28t27.5 34t14.5 37t7 46.5q0 79 -58 129t-151 50q-92 0 -152 -56t-60 -137h-41q2 105 67.5 163.5t182.5 58.5q121 0 187 -56t66 -153q0 -66 -31 -108q-12 -17 -29.5 -34
t-31.5 -28t-40.5 -30t-39.5 -29zM238 0v52h48v-52h-48z" />
    <glyph glyph-name="at" unicode="@" horiz-adv-x="1024" 
d="M647 355q-23 103 -121 103q-78 0 -130 -69t-52 -173q0 -59 29.5 -92.5t81.5 -33.5q57 0 100.5 37t59.5 99zM599 153q-24 -44 -62.5 -69t-81.5 -25q-77 0 -117 41t-40 119q0 114 67.5 192.5t161.5 78.5q98 0 128 -88l31 68h33l-69 -273q-12 -48 -12 -59q0 -48 63 -48
q73 0 133 63q39 41 62 101.5t23 127.5q0 133 -100.5 217t-264.5 84q-167 0 -281 -94q-160 -128 -160 -341q0 -162 110.5 -261t294.5 -99q172 0 314 96l11 -18q-145 -107 -320 -107q-189 0 -306 90q-149 113 -149 307q0 161 98 280q145 177 392 177q164 0 274 -83
q128 -99 128 -249q0 -171 -119 -266q-70 -55 -151 -55q-93 0 -93 70q0 7 2 23z" />
    <glyph glyph-name="A" unicode="A" horiz-adv-x="772" 
d="M584 269l-198 427l-198 -427h396zM364 726h44l344 -726h-44l-109 237h-426l-109 -237h-44z" />
    <glyph glyph-name="B" unicode="B" horiz-adv-x="751" 
d="M130 32h306q219 0 219 164q0 49 -24.5 84t-66.5 53.5t-88 27t-98 8.5h-248v-337zM130 396h252q244 0 244 152q0 78 -49.5 113.5t-147.5 35.5h-299v-301zM92 0v726h352q115 0 169 -42t54 -130q0 -66 -39 -114t-133 -57q95 -10 148 -60t53 -121q0 -107 -60 -154.5
t-193 -47.5h-351z" />
    <glyph glyph-name="C" unicode="C" horiz-adv-x="823" 
d="M731 517q-21 89 -100.5 143t-194.5 54q-157 0 -250.5 -95t-93.5 -256q0 -159 91 -255t238 -96q120 0 208 66t110 168h44q-21 -118 -118.5 -192t-241.5 -74q-171 0 -270.5 102.5t-99.5 280.5q0 181 100.5 282t283.5 101q143 0 231.5 -62.5t103.5 -166.5h-41z" />
    <glyph glyph-name="D" unicode="D" horiz-adv-x="825" 
d="M335 699h-205v-668h222q93 0 155 11t109 42q114 75 114 284q0 202 -114 280q-49 32 -113 41.5t-168 9.5zM352 726q115 0 183.5 -13t120.5 -53q61 -46 88.5 -117.5t27.5 -179.5t-27.5 -179.5t-88.5 -117.5q-52 -40 -120.5 -53t-183.5 -13h-261v726h261z" />
    <glyph glyph-name="E" unicode="E" horiz-adv-x="694" 
d="M91 0v726h551v-29h-513v-312h474v-29h-474v-324h513v-32h-551z" />
    <glyph glyph-name="F" unicode="F" horiz-adv-x="655" 
d="M91 0v726h530v-29h-492v-309h439v-32h-439v-356h-38z" />
    <glyph glyph-name="G" unicode="G" horiz-adv-x="847" 
d="M776 0h-30l-8 159q-22 -51 -62 -89t-86.5 -56t-86.5 -26t-76 -8q-173 0 -273.5 102.5t-100.5 280.5q0 181 100.5 282t283.5 101q139 0 227.5 -63t97.5 -159h-47q-17 87 -92 138.5t-190 51.5q-155 0 -247.5 -95t-92.5 -256q0 -160 92.5 -256.5t242.5 -95.5q140 1 225 83
t85 178v55h-243v29h281v-356z" />
    <glyph glyph-name="H" unicode="H" horiz-adv-x="797" 
d="M89 0v726h40v-322h538v322h40v-726h-40v375h-538v-375h-40z" />
    <glyph glyph-name="I" unicode="I" horiz-adv-x="232" 
d="M97 0v726h38v-726h-38z" />
    <glyph glyph-name="J" unicode="J" horiz-adv-x="591" 
d="M279 -20q-233 0 -233 227v8h38v-14q0 -91 48.5 -139t137.5 -48q102 0 145.5 53.5t43.5 168.5v490h38v-474q0 -77 -6.5 -118t-31.5 -74q-61 -80 -180 -80z" />
    <glyph glyph-name="K" unicode="K" horiz-adv-x="722" 
d="M92 0v726h38v-443l501 443h46l-335 -298l346 -428h-47l-328 404l-183 -161v-243h-38z" />
    <glyph glyph-name="L" unicode="L" horiz-adv-x="642" 
d="M91 0v726h38v-694h483v-32h-521z" />
    <glyph glyph-name="M" unicode="M" horiz-adv-x="1030" 
d="M494 0l-363 656v-656h-38v726h44l378 -690l378 690h44v-726h-38v655l-361 -655h-44z" />
    <glyph glyph-name="N" unicode="N" horiz-adv-x="854" 
d="M725 726h39v-726h-45l-590 676v-676h-39v726h45l590 -679v679z" />
    <glyph glyph-name="O" unicode="O" horiz-adv-x="877" 
d="M438 8q158 0 251.5 96.5t93.5 258.5t-93.5 256.5t-251.5 94.5t-251.5 -94.5t-93.5 -256.5t93.5 -258.5t251.5 -96.5zM822 363q0 -181 -100.5 -282t-283.5 -101t-283.5 101t-100.5 282t100.5 282t283.5 101t283.5 -101t100.5 -282z" />
    <glyph glyph-name="P" unicode="P" horiz-adv-x="694" 
d="M92 0v726h293q137 0 200 -49t63 -156q0 -108 -62.5 -156.5t-200.5 -48.5h-255v-316h-38zM130 347h241q121 0 178 38.5t57 136.5q0 97 -57 136t-178 39h-241v-350z" />
    <glyph glyph-name="Q" unicode="Q" horiz-adv-x="877" 
d="M632 63l-100 77l24 28l109 -94q118 115 118 290q0 162 -93 256t-252 94q-158 0 -250.5 -94.5t-92.5 -256.5t92.5 -256.5t250.5 -94.5q111 0 194 51zM662 33q-101 -53 -224 -53q-183 0 -283.5 101.5t-100.5 282.5t100.5 281.5t283.5 100.5t284.5 -100.5t101.5 -281.5
q0 -96 -31.5 -169.5t-105.5 -141.5l116 -93l-21 -24z" />
    <glyph glyph-name="R" unicode="R" horiz-adv-x="768" 
d="M90 0v726h349q133 0 196 -46.5t63 -140.5q0 -75 -40 -130t-117 -64q56 -5 98 -47t42 -105q0 -61 0.5 -88.5t5 -57.5t14.5 -47h-44q-17 44 -17 193q0 67 -57 102t-149 35h-305v-330h-39zM421 697h-292v-337h302q114 0 170 40t56 129q0 92 -58 130t-178 38z" />
    <glyph glyph-name="S" unicode="S" horiz-adv-x="727" 
d="M62 211h40q0 -83 76.5 -141t191.5 -58t184 50t69 130q0 72 -49.5 103.5t-160.5 50.5l-163 29q-87 15 -126 55.5t-39 115.5q0 91 72.5 145.5t203.5 54.5t203.5 -53t74.5 -140h-39q-6 74 -69 117.5t-170 43.5t-171 -45t-64 -120q0 -68 43.5 -96.5t152.5 -50.5l157 -31
q100 -20 142.5 -59.5t42.5 -116.5q0 -102 -75 -158.5t-218 -56.5q-145 0 -225.5 61.5t-83.5 169.5z" />
    <glyph glyph-name="T" unicode="T" horiz-adv-x="638" 
d="M300 0v697h-298v29h634v-29h-298v-697h-38z" />
    <glyph glyph-name="U" unicode="U" horiz-adv-x="813" 
d="M90 726h39v-450q0 -264 277 -264q278 0 278 264v450l39 1v-471q0 -136 -80 -206t-237 -70q-316 0 -316 280v466z" />
    <glyph glyph-name="V" unicode="V" horiz-adv-x="758" 
d="M355 0l-338 726h44l316 -694l319 694h45l-342 -726h-44z" />
    <glyph glyph-name="W" unicode="W" horiz-adv-x="1150" 
d="M801 0l-228 676l-228 -676h-44l-272 726h44l250 -694l228 694h44l228 -694l253 694h44l-275 -726h-44z" />
    <glyph glyph-name="X" unicode="X" horiz-adv-x="702" 
d="M38 0l294 370l-278 356h47l252 -328l257 328h47l-278 -357l292 -369h-50l-266 340l-264 -340h-53z" />
    <glyph glyph-name="Y" unicode="Y" horiz-adv-x="727" 
d="M344 0v319l-310 407h49l280 -384l284 384h45l-310 -407v-319h-38z" />
    <glyph glyph-name="Z" unicode="Z" horiz-adv-x="704" 
d="M34 0v46l593 651h-564v29h606v-42l-597 -652h597v-32h-635z" />
    <glyph glyph-name="bracketleft" unicode="[" horiz-adv-x="288" 
d="M79 -199v919h180v-24h-148v-871h149v-24h-181z" />
    <glyph glyph-name="backslash" unicode="\" horiz-adv-x="258" 
d="M285 -98l-288 844h21l287 -844h-20z" />
    <glyph glyph-name="bracketright" unicode="]" horiz-adv-x="288" 
d="M209 -199h-181v24h149v871h-148v24h180v-919z" />
    <glyph glyph-name="asciicircum" unicode="^" horiz-adv-x="1026" 
d="M543 738l233 -270h-29l-235 241l-236 -241h-29l234 270h62z" />
    <glyph glyph-name="underscore" unicode="_" horiz-adv-x="494" 
d="M494 -242v-14h-494v14h494z" />
    <glyph glyph-name="grave" unicode="`" horiz-adv-x="493" 
d="M251 625l-89 114h44l67 -114h-22z" />
    <glyph glyph-name="a" unicode="a" 
d="M517 312q-18 -16 -43 -25.5t-46 -12.5t-61.5 -7t-65.5 -8q-39 -6 -59 -9.5t-48 -10.5t-41.5 -15t-28 -20.5t-20 -30t-5.5 -40.5q0 -52 45.5 -86.5t118.5 -34.5q110 0 182 55.5t72 141.5v103zM616 34v-28q-30 -6 -43 -6q-34 0 -45 19.5t-11 92.5q-66 -124 -260 -124
t-194 147q0 66 51 104q25 18 68 28t123 20q20 3 53.5 7t48.5 6t37.5 7t32.5 11t21 16.5t15 25.5t4 36q0 56 -49 85t-140 29q-99 0 -152 -34.5t-53 -94.5h-35q-1 76 61.5 116.5t183.5 40.5q142 0 193 -61q18 -23 23 -49.5t5 -75.5v-250q0 -21 0.5 -28.5t4.5 -20.5t14 -18
t27 -5z" />
    <glyph glyph-name="b" unicode="b" horiz-adv-x="682" 
d="M81 0v726h35v-336q70 148 243 148q127 0 203 -74.5t76 -199.5t-76 -200.5t-203 -75.5q-175 0 -243 152v-140h-35zM116 264q0 -110 67 -178.5t175 -68.5t175.5 68.5t67.5 178.5q0 108 -67 177t-175 69t-175.5 -68.5t-67.5 -177.5z" />
    <glyph glyph-name="c" unicode="c" horiz-adv-x="612" 
d="M543 168h38q-9 -77 -80 -128.5t-174 -51.5q-130 0 -206 75t-76 203q0 127 76 199.5t206 72.5q101 0 169.5 -44t79.5 -111h-40q-19 60 -75.5 93.5t-135.5 33.5q-107 0 -175.5 -66.5t-68.5 -177.5q0 -112 68.5 -181t177.5 -69q81 0 142 44t74 108z" />
    <glyph glyph-name="d" unicode="d" horiz-adv-x="682" 
d="M601 727v-727h-34v140q-51 -152 -244 -152q-127 0 -202.5 75t-75.5 201q0 125 75.5 199.5t202.5 74.5q76 0 142 -34.5t102 -112.5v336h34zM567 264q0 110 -67.5 178.5t-175.5 68.5t-175.5 -69.5t-67.5 -177.5q0 -110 67.5 -178.5t175.5 -68.5t175.5 68.5t67.5 178.5z" />
    <glyph glyph-name="e" unicode="e" horiz-adv-x="649" 
d="M580 141q-17 -67 -85 -110t-168 -43q-130 0 -205.5 74t-75.5 200t76 201t205 75q127 0 203 -75.5t76 -201.5h-524q7 -122 72 -183t173 -61q76 0 133 34t75 90h45zM82 289h484q0 105 -69 163t-170 58q-100 0 -168 -58.5t-77 -162.5z" />
    <glyph glyph-name="f" unicode="f" horiz-adv-x="280" 
d="M113 0v496h-98v28h98v65q0 81 19.5 109t78.5 28q32 0 64 -8v-28q-25 7 -64 7q-40 0 -52 -23.5t-12 -75.5v-74h128v-28h-128v-496h-34z" />
    <glyph glyph-name="g" unicode="g" horiz-adv-x="682" 
d="M569 262q0 111 -67.5 179.5t-175.5 68.5t-175.5 -69t-67.5 -179q0 -108 67.5 -176.5t175.5 -68.5t175.5 68t67.5 177zM603 23q0 -64 -10.5 -99t-46.5 -65q-76 -60 -218 -60q-109 0 -170.5 35.5t-66.5 89.5h39q7 -44 59.5 -70.5t137.5 -26.5q127 0 184.5 45t57.5 144v120
q-27 -76 -96.5 -112t-147.5 -36q-127 0 -202.5 74.5t-75.5 199.5q0 126 75.5 201t202.5 75q37 0 68.5 -5.5t65 -20.5t62 -46t48.5 -76v134h34v-501z" />
    <glyph glyph-name="h" unicode="h" horiz-adv-x="641" 
d="M77 0v726h34v-322q62 134 241 134q91 0 151.5 -49t60.5 -145v-344h-34v296q0 214 -181 214q-45 0 -85 -11.5t-75.5 -37t-56.5 -73.5t-21 -113v-275h-34z" />
    <glyph glyph-name="i" unicode="i" horiz-adv-x="203" 
d="M84 0v524h34v-524h-34zM118 726v-67h-34v67h34z" />
    <glyph glyph-name="j" unicode="j" horiz-adv-x="200" 
d="M125 -86q0 -70 -20 -95.5t-84 -25.5q-24 0 -56 7l1 29q18 -6 46 -8q28 0 44.5 7t23.5 24.5t8.5 32.5t1.5 44v589h35v-604zM125 719v-67h-34v67h34z" />
    <glyph glyph-name="k" unicode="k" horiz-adv-x="590" 
d="M82 0v726h34v-487l352 285h45l-228 -185l284 -339h-47l-267 318l-139 -115v-203h-34z" />
    <glyph glyph-name="l" unicode="l" horiz-adv-x="203" 
d="M84 0v726h34v-726h-34z" />
    <glyph glyph-name="m" unicode="m" horiz-adv-x="1084" 
d="M78 0v524h34v-128q58 142 255 142q76 0 116.5 -31t66.5 -111q56 142 254 142q107 0 155.5 -45t48.5 -145v-348h-34v300q0 109 -40 159.5t-137 50.5q-101 0 -168.5 -57.5t-67.5 -147.5v-305h-34v300q0 106 -46 158t-145 52q-91 0 -157.5 -60t-66.5 -145v-305h-34z" />
    <glyph glyph-name="n" unicode="n" horiz-adv-x="641" 
d="M77 0v524h34v-130q16 59 81 101.5t160 42.5q90 0 151 -45.5t61 -148.5v-344h-34v331q0 179 -176 179q-42 0 -82 -11t-77.5 -35.5t-60.5 -70t-23 -106.5v-287h-34z" />
    <glyph glyph-name="o" unicode="o" horiz-adv-x="654" 
d="M608 260q1 -110 -54 -181q-75 -97 -227 -97q-144 0 -222 90q-60 74 -60 188q0 127 76 199.5t206 72.5t205.5 -72.5t75.5 -199.5zM572 260q0 112 -67.5 178t-177.5 66t-178 -66.5t-68 -177.5q0 -112 68 -181t178 -69q109 0 177 69t68 181z" />
    <glyph glyph-name="p" unicode="p" horiz-adv-x="682" 
d="M116 125v-336h-34v725h34v-139q66 153 244 153q128 0 203 -75.5t75 -200.5q0 -124 -75.5 -199t-202.5 -75q-77 0 -145 35t-99 112zM602 252q0 110 -67.5 179t-175.5 69t-175.5 -68.5t-67.5 -179.5q0 -109 67.5 -177.5t175.5 -68.5t175.5 69t67.5 177z" />
    <glyph glyph-name="q" unicode="q" horiz-adv-x="682" 
d="M567 135q-31 -77 -99 -112t-145 -35q-127 0 -202.5 75t-75.5 199q0 125 75 200.5t203 75.5q178 0 244 -153v139h34v-725h-34v336zM81 262q0 -108 67.5 -177t175.5 -69t175.5 68.5t67.5 177.5q0 111 -67.5 179.5t-175.5 68.5t-175.5 -69t-67.5 -179z" />
    <glyph glyph-name="r" unicode="r" horiz-adv-x="358" 
d="M113 0h-34v524h34v-139q22 78 69 115.5t106 37.5q51 0 73 -11v-33q-26 16 -78 16q-71 0 -120.5 -74t-49.5 -154v-282z" />
    <glyph glyph-name="s" unicode="s" horiz-adv-x="563" 
d="M31 135h37q7 -58 63.5 -92.5t149.5 -34.5q100 0 157 32.5t57 92.5q0 86 -122 106l-163 24q-91 13 -128 42.5t-37 91.5q0 67 59 105t173 38q111 0 172 -39t63 -100h-39q-8 52 -63 83t-144 31q-83 0 -133 -31.5t-50 -82.5q0 -50 37 -74t109 -34l144 -22q88 -13 124 -42
t36 -89q0 -160 -259 -160q-114 0 -176 42t-67 113z" />
    <glyph glyph-name="t" unicode="t" horiz-adv-x="280" 
d="M145 129q0 -57 14 -84.5t61 -27.5q11 0 24.5 3.5t21.5 7.5l8 3v-31q-31 -12 -73 -12q-53 0 -71.5 29t-18.5 104v375h-98v29h98v172h34v-172h128v-29h-128v-367z" />
    <glyph glyph-name="u" unicode="u" horiz-adv-x="641" 
d="M564 524v-524h-33v146q-13 -45 -58 -90q-71 -68 -197 -68q-106 0 -152.5 45.5t-46.5 146.5v344h34v-295q0 -116 36 -164t141 -48q101 0 172 67t70 176l-1 264h35z" />
    <glyph glyph-name="v" unicode="v" horiz-adv-x="535" 
d="M3 524h41l222 -499l221 499h41l-242 -524h-41z" />
    <glyph glyph-name="w" unicode="w" horiz-adv-x="877" 
d="M837 524l-191 -524h-42l-173 493l-177 -493h-42l-190 524h41l170 -499l177 499h41l175 -499l170 499h41z" />
    <glyph glyph-name="x" unicode="x" horiz-adv-x="562" 
d="M493 0l-209 258l-211 -258h-49l241 281l-211 243h50l178 -220l180 220h50l-210 -245l240 -279h-49z" />
    <glyph glyph-name="y" unicode="y" horiz-adv-x="535" 
d="M250 -78q-3 -5 -15 -25.5t-14.5 -24.5t-12.5 -19t-14 -17.5t-14.5 -12.5t-18.5 -11.5t-20.5 -6t-26.5 -5.5t-31 -1q-27 0 -45 6v28q27 -6 54 -6q52 0 84 36t70 121l-248 540h42l223 -515l225 515h39z" />
    <glyph glyph-name="z" unicode="z" horiz-adv-x="558" 
d="M26 0v39l461 457h-434v28h463v-38l-461 -457h476v-29h-505z" />
    <glyph glyph-name="braceleft" unicode="{" horiz-adv-x="494" 
d="M407 725v-35h-19q-73 0 -95.5 -28.5t-22.5 -108.5v-120q0 -82 -19 -121.5t-77 -57.5q58 -18 77 -57.5t19 -121.5v-120q0 -80 22.5 -108.5t95.5 -28.5h19v-34h-17q-97 0 -128.5 40.5t-31.5 149.5v118q0 80 -28.5 112.5t-101.5 32.5q-3 0 -11 -0.5t-12 -0.5v36q9 -1 26 -1
q70 0 98.5 33t28.5 112v118q0 109 31.5 150t128.5 41h17z" />
    <glyph glyph-name="bar" unicode="|" horiz-adv-x="494" 
d="M263 775v-1020h-32v1020h32z" />
    <glyph glyph-name="braceright" unicode="}" horiz-adv-x="494" 
d="M91 727h17q97 0 128.5 -41t31.5 -150v-118q0 -79 28.5 -112t98.5 -33q17 0 26 1v-36q-4 0 -12 0.5t-11 0.5q-73 0 -101.5 -32.5t-28.5 -112.5v-118q0 -109 -31.5 -149.5t-128.5 -40.5h-17v34h19q73 0 95.5 28.5t22.5 108.5v120q0 82 19 121.5t77 57.5q-58 18 -77 57.5
t-19 121.5v120q0 80 -22.5 108.5t-95.5 28.5h-19v35z" />
    <glyph glyph-name="asciitilde" unicode="~" horiz-adv-x="848" 
d="M753 343v-36q-105 -73 -193 -73q-54 0 -143 33q-101 37 -143 37q-78 0 -193 -80v37q103 74 193 74q36 0 96 -20q12 -4 47 -17t51.5 -18t43 -10.5t48.5 -5.5q80 0 193 79z" />
    <glyph glyph-name="sterling" unicode="&#xa3;" 
d="M197 216q0 -32 -4.5 -56.5t-27.5 -61.5t-64 -69v-1q10 6 24 10t26 6t27 2.5t23.5 0.5h20h12.5q28 0 100 -18.5t117 -18.5q83 0 155 49l12 -29q-61 -50 -161 -50q-50 0 -135.5 21.5t-122.5 21.5q-72 0 -128 -32l-19 33q109 70 109 184q0 55 -32 125h-95v26h88
q-43 109 -43 161q0 92 71 150t193 58q126 0 196.5 -56.5t70.5 -156.5h-34q0 82 -63.5 134t-168.5 52q-100 0 -163 -52t-63 -133q0 -57 43 -157h239v-26h-229q26 -77 26 -117z" />
    <glyph glyph-name="currency" unicode="&#xa4;" horiz-adv-x="607" 
d="M69 700l103 -103q57 47 130 47q74 0 131 -47l102 103l30 -30l-103 -102q46 -56 46 -130t-46 -130l103 -102l-30 -30l-102 103q-56 -46 -131 -46q-74 0 -130 46l-103 -103l-29 30l103 102q-46 56 -46 130t46 130l-103 102zM303 603q-69 0 -117 -48t-48 -116t48 -116.5
t117 -48.5t117 48.5t48 116.5t-48 116t-117 48z" />
    <glyph glyph-name="brokenbar" unicode="&#xa6;" horiz-adv-x="494" 
d="M263 720v-371h-24v371h24zM263 180v-356h-24v356h24z" />
    <glyph glyph-name="section" unicode="&#xa7;" horiz-adv-x="654" 
d="M212 200l235 -85q66 30 97 59.5t31 69.5q0 87 -153 139l-194 66q-133 -39 -133 -126q0 -77 117 -123zM93 11h43v-15q0 -66 48 -102t136 -36q91 0 144.5 32.5t53.5 88.5q0 39 -31.5 68t-95.5 53l-190 70q-150 53 -150 149q0 100 139 154q-72 43 -72 109t60.5 109.5
t158.5 43.5q108 0 167.5 -46.5t59.5 -133.5h-46q0 71 -45.5 109t-130.5 38q-80 0 -128.5 -33.5t-48.5 -85.5q0 -44 36 -72t116 -55l112 -40q189 -64 189 -167q0 -96 -140 -154q86 -46 86 -114q0 -67 -67.5 -111t-172.5 -44q-110 0 -171.5 42.5t-61.5 119.5q0 15 2 23z" />
    <glyph glyph-name="copyright" unicode="&#xa9;" horiz-adv-x="847" 
d="M423 715q152 0 258 -106q105 -105 105 -256q0 -153 -104 -254q-109 -109 -259 -109q-149 0 -254 108q-108 105 -108 255q0 149 108 257q102 105 254 105zM423 683q-137 0 -231 -96q-99 -101 -99 -234q0 -134 98 -232q99 -99 232 -99t235 100q96 93 96 231q0 137 -96 233
q-97 97 -235 97zM587 454h-40q-11 44 -43 68.5t-80 24.5q-67 0 -105.5 -51.5t-38.5 -143.5q0 -88 39.5 -140t104.5 -52q51 0 86.5 29t43.5 75h37q-5 -59 -53 -98t-118 -39q-83 0 -134 61t-51 164q0 105 52.5 166t139.5 61q64 0 108.5 -35t51.5 -90z" />
    <glyph glyph-name="guillemotleft" unicode="&#xab;" horiz-adv-x="478" 
d="M34 275l181 137v-32l-145 -121l145 -121v-32l-181 137v32zM256 275l181 137v-32l-145 -121l145 -121v-32l-181 137v32z" />
    <glyph glyph-name="logicalnot" unicode="&#xac;" horiz-adv-x="847" 
d="M723 411v-235h-28v209h-571v26h599z" />
    <glyph glyph-name="registered" unicode="&#xae;" horiz-adv-x="847" 
d="M423 715q149 0 256 -104q104 -106 104 -255q0 -150 -103 -251q-111 -109 -257 -109q-147 0 -252 107q-107 105 -107 253q0 146 107 255q102 104 252 104zM423 683q-138 0 -230 -95q-97 -97 -97 -232q0 -134 98 -230q96 -98 229 -98q135 0 234 99q94 91 94 229
q0 137 -96 231q-96 96 -232 96zM286 571h149q88 0 129.5 -27.5t41.5 -88.5q0 -43 -28 -72.5t-74 -34.5l95 -196h-52l-90 189h-128v-189h-43v419zM329 536v-160h94q72 0 102 17t30 65q0 41 -32 59.5t-99 18.5h-95z" />
    <glyph glyph-name="degree" unicode="&#xb0;" horiz-adv-x="311" 
d="M159 738q55 0 94 -39t39 -95q0 -55 -38.5 -94t-95.5 -39t-95 38.5t-38 94.5q0 57 39 95.5t95 38.5zM159 713q-45 0 -77 -31.5t-32 -77.5t32 -77.5t77 -31.5q46 0 77 32t31 77t-31.5 77t-76.5 32z" />
    <glyph glyph-name="plusminus" unicode="&#xb1;" horiz-adv-x="848" 
d="M403 563h30v-177h276v-30h-276v-179h-30v179h-277v30h277v177zM126 57h583v-31h-583v31z" />
    <glyph glyph-name="mu" unicode="&#xb5;" horiz-adv-x="540" 
d="M109 511h34l-62 -289q-12 -60 -12 -83q0 -66 34.5 -101t97.5 -35q68 0 122.5 60.5t78.5 169.5l61 278h37l-100 -441q-3 -15 -3 -29q0 -35 42 -35q11 0 18 1l-6 -31q-9 -2 -26 -2q-63 0 -63 56q0 11 5 38q-65 -100 -177 -100q-56 0 -94 27t-49 74l-65 -294h-36z" />
    <glyph glyph-name="mu" unicode="&#x3bc;" horiz-adv-x="540" 
d="M109 511h34l-62 -289q-12 -60 -12 -83q0 -66 34.5 -101t97.5 -35q68 0 122.5 60.5t78.5 169.5l61 278h37l-100 -441q-3 -15 -3 -29q0 -35 42 -35q11 0 18 1l-6 -31q-9 -2 -26 -2q-63 0 -63 56q0 11 5 38q-65 -100 -177 -100q-56 0 -94 27t-49 74l-65 -294h-36z" />
    <glyph glyph-name="paragraph" unicode="&#xb6;" horiz-adv-x="494" 
d="M235 739h215v-29h-67v-707h-28v707h-99v-707h-28v389q-88 4 -139 51.5t-51 122.5q0 77 53.5 125t143.5 48z" />
    <glyph glyph-name="periodcentered" unicode="&#xb7;" horiz-adv-x="306" 
d="M117 354q0 33 36 33t36 -33q0 -34 -36 -34t-36 34z" />
    <glyph glyph-name="periodcentered" unicode="&#x2219;" horiz-adv-x="306" 
d="M117 354q0 33 36 33t36 -33q0 -34 -36 -34t-36 34z" />
    <glyph glyph-name="guillemotright" unicode="&#xbb;" horiz-adv-x="478" 
d="M255 412l181 -137v-32l-181 -137v32l145 121l-145 121v32zM33 412l181 -137v-32l-181 -137v32l145 121l-145 121v32z" />
    <glyph glyph-name="afii10023" unicode="&#x401;" horiz-adv-x="694" 
d="M91 0v726h551v-29h-512v-312h473v-30h-473v-326h512v-29h-551zM208 869v57h39v-57h-39zM481 869v57h39v-57h-39z" />
    <glyph glyph-name="afii10051" unicode="&#x402;" horiz-adv-x="947" 
d="M338 357v-357h-39v697h-297v29h661v-29h-325v-307q127 35 272 35q136 0 220.5 -63.5t84.5 -157.5q0 -110 -73.5 -167t-216.5 -57q-63 0 -121 20l10 33q75 -23 109 -23q46 0 87 9t80 29.5t62.5 59.5t23.5 93t-27 94t-70.5 60.5t-88.5 30t-91 9.5q-146 0 -261 -38z" />
    <glyph glyph-name="afii10052" unicode="&#x403;" horiz-adv-x="582" 
d="M130 0h-38v726h481v-29h-443v-697zM309 828l83 164h59l-113 -164h-29z" />
    <glyph glyph-name="afii10053" unicode="&#x404;" horiz-adv-x="823" 
d="M731 517q-21 90 -100.5 144t-194.5 54q-141 0 -231 -80.5t-111 -229.5h431v-30h-433q4 -169 94 -266t235 -97q120 0 208 66t110 168h44q-21 -118 -118.5 -192t-241.5 -74q-171 0 -270.5 102.5t-99.5 280.5q0 181 100.5 282t283.5 101q143 0 231.5 -62.5t103.5 -166.5h-41
z" />
    <glyph glyph-name="afii10054" unicode="&#x405;" horiz-adv-x="727" 
d="M62 211h40v17q0 -95 73 -155.5t189 -60.5q115 0 186 50.5t71 129.5q0 72 -48.5 103.5t-159.5 50.5l-163 29q-87 15 -126 55.5t-39 115.5q0 92 71 146t202 54q132 0 205.5 -53t75.5 -140h-39q-6 74 -70 120t-170 46t-170.5 -47t-64.5 -122q0 -69 50 -101.5t158 -51.5
l146 -26q100 -17 142.5 -57.5t42.5 -118.5q0 -102 -75 -158.5t-218 -56.5q-145 0 -225.5 61.5t-83.5 169.5z" />
    <glyph glyph-name="afii10055" unicode="&#x406;" horiz-adv-x="232" 
d="M97 0v726h38v-726h-38z" />
    <glyph glyph-name="afii10056" unicode="&#x407;" horiz-adv-x="231" 
d="M97 0v727h38v-727h-38zM35 819v62h35v-62h-35zM162 819v62h35v-62h-35z" />
    <glyph glyph-name="afii10057" unicode="&#x408;" horiz-adv-x="591" 
d="M279 -20q-232 0 -232 227v8h-1h1h37v-14q0 -91 48.5 -141.5t137.5 -50.5q101 0 145 56t44 171v491h38v-475q0 -77 -6.5 -118t-31.5 -74q-61 -80 -180 -80z" />
    <glyph glyph-name="afii10058" unicode="&#x409;" horiz-adv-x="1274" 
d="M673 694h-497v-344q0 -199 -32 -284.5t-100 -85.5q-29 0 -44 5l6 36q19 -5 35 -5q51 0 74 91t23 294v325h573v-315h254q137 0 200 -48.5t63 -156.5t-63 -157t-200 -49h-292v694zM711 379v-350h240q121 0 178 39t57 137t-57 136t-178 38h-240z" />
    <glyph glyph-name="afii10059" unicode="&#x40a;" horiz-adv-x="1268" 
d="M89 726h40v-321h538v321h38v-321h254q140 0 202.5 -46.5t62.5 -153.5t-63.5 -156t-201.5 -49h-292v375h-538v-375h-40v726zM705 375v-346h241q121 0 178 39t57 136q0 99 -56.5 135t-178.5 36h-241z" />
    <glyph glyph-name="afii10060" unicode="&#x40b;" horiz-adv-x="947" 
d="M299 0v697h-297v29h661v-29h-325v-307q127 35 272 35q42 0 82.5 -7.5t81.5 -26t72 -46t50 -71.5t19 -99v-175h-39v177q0 61 -26 105.5t-69 68t-88.5 34t-93.5 10.5q-146 0 -261 -38v-357h-39z" />
    <glyph glyph-name="afii10061" unicode="&#x40c;" horiz-adv-x="722" 
d="M91 0v727h39v-443l501 443h46l-335 -299l346 -428h-47l-328 405l-183 -161v-244h-39zM349 836l82 164h60l-114 -164h-28z" />
    <glyph glyph-name="afii10062" unicode="&#x40e;" horiz-adv-x="727" 
d="M8 726h45l314 -593l271 593h42l-301 -639q-21 -41 -48 -63.5t-46.5 -27.5t-48.5 -8q-23 -2 -58 8l8 33q16 -9 36 -9q48 2 70 12.5t40 43.5l15 26zM198 931h24q0 -54 36 -78t91 -24q132 0 132 102h24q0 -65 -40.5 -99.5t-118.5 -34.5q-72 0 -110 35t-38 99z" />
    <glyph glyph-name="afii10145" unicode="&#x40f;" horiz-adv-x="797" 
d="M89 0v726h40v-695h538v695h40v-726h-290v-189h-39v189h-289z" />
    <glyph glyph-name="afii10017" unicode="&#x410;" horiz-adv-x="772" 
d="M584 269l-198 427l-198 -427h396zM364 726h44l344 -726h-44l-109 237h-426l-109 -237h-44z" />
    <glyph glyph-name="afii10018" unicode="&#x411;" horiz-adv-x="751" 
d="M130 32h306q219 0 219 164q0 49 -24.5 84t-66.5 53.5t-88 27t-98 8.5h-248v-337zM92 0v726h534v-29h-496v-301h252q87 0 151 -17t98 -46t49.5 -61.5t15.5 -69.5q0 -107 -60 -154.5t-193 -47.5h-351z" />
    <glyph glyph-name="afii10019" unicode="&#x412;" horiz-adv-x="751" 
d="M130 32h306q219 0 219 164q0 49 -24.5 84t-66.5 53.5t-88 27t-98 8.5h-248v-337zM130 396h252q244 0 244 152q0 78 -49.5 113.5t-147.5 35.5h-299v-301zM92 0v726h352q115 0 169 -42t54 -130q0 -66 -39 -114t-133 -57q95 -10 148 -60t53 -121q0 -107 -60 -154.5
t-193 -47.5h-351z" />
    <glyph glyph-name="afii10020" unicode="&#x413;" horiz-adv-x="582" 
d="M130 0h-38v726h481v-29h-443v-697z" />
    <glyph glyph-name="afii10021" unicode="&#x414;" horiz-adv-x="773" 
d="M645 697h-430v-327q0 -111 -21 -185t-74 -153h526zM74 32v-1q56 71 79 153t23 217v325h508v-694h78v-221h-38v189h-665v-189h-38v221h53z" />
    <glyph glyph-name="afii10022" unicode="&#x415;" horiz-adv-x="694" 
d="M91 0v726h551v-29h-513v-312h474v-30h-474v-323h513v-32h-551z" />
    <glyph glyph-name="afii10024" unicode="&#x416;" horiz-adv-x="1023" 
d="M535 0h-38v243l-156 157l-284 -400h-47l302 428l-292 298h46l431 -443v443h38v-443l431 443h46l-292 -298l302 -428h-47l-284 400l-156 -157v-243z" />
    <glyph glyph-name="afii10025" unicode="&#x417;" horiz-adv-x="751" 
d="M164 557h-38q0 84 67 136.5t195 52.5t202.5 -47t74.5 -138q0 -70 -37 -113.5t-122 -62.5q89 -12 139 -66.5t50 -126.5q0 -212 -295 -212q-293 0 -293 209h38q0 -177 255 -177q128 0 191 47.5t63 122.5q0 87 -62 136t-168 49h-93v30h77q88 0 140 29q76 39 76 130
q0 79 -68.5 118.5t-167.5 39.5q-96 0 -160 -38.5t-64 -118.5z" />
    <glyph glyph-name="afii10026" unicode="&#x418;" horiz-adv-x="853" 
d="M761 0h-39v676l-596 -676h-39v726h39v-668l596 668h39v-726z" />
    <glyph glyph-name="afii10027" unicode="&#x419;" horiz-adv-x="853" 
d="M756 0h-39v676l-596 -676h-39v726h39v-667l596 667h39v-726zM267 932h24q0 -54 36 -78t91 -24q132 0 132 102h24q0 -65 -40.5 -99.5t-118.5 -34.5q-72 0 -110 35t-38 99z" />
    <glyph glyph-name="afii10028" unicode="&#x41a;" horiz-adv-x="722" 
d="M91 0v726h39v-443l501 443h46l-335 -298l346 -428h-47l-328 404l-183 -161v-243h-39z" />
    <glyph glyph-name="afii10029" unicode="&#x41b;" horiz-adv-x="802" 
d="M174 697v-347q0 -199 -32 -284.5t-100 -85.5q-25 0 -40 5l3 31l13 -2q13 -2 21 -2q50 0 73.5 92.5t23.5 296.5v325h573v-726h-37v697h-498z" />
    <glyph glyph-name="afii10030" unicode="&#x41c;" horiz-adv-x="1030" 
d="M494 0l-363 656v-656h-38v726h44l378 -690l378 690h44v-726h-38v655l-361 -655h-44z" />
    <glyph glyph-name="afii10031" unicode="&#x41d;" horiz-adv-x="797" 
d="M89 0v726h40v-322h538v322h40v-726h-40v375h-538v-375h-40z" />
    <glyph glyph-name="afii10032" unicode="&#x41e;" horiz-adv-x="877" 
d="M438 12q158 0 251.5 94.5t93.5 256.5t-93.5 256.5t-251.5 94.5t-251.5 -94.5t-93.5 -256.5t93.5 -256.5t251.5 -94.5zM824 363q0 -181 -101.5 -282t-284.5 -101t-283.5 101t-100.5 282t100.5 282t283.5 101t284.5 -101t101.5 -282z" />
    <glyph glyph-name="afii10033" unicode="&#x41f;" horiz-adv-x="797" 
d="M89 0v726h618v-726h-39v697h-540v-697h-39z" />
    <glyph glyph-name="afii10034" unicode="&#x420;" horiz-adv-x="694" 
d="M92 0v726h293q137 0 200 -49t63 -156q0 -108 -62.5 -156.5t-200.5 -48.5h-255v-316h-38zM130 347h241q121 0 178 38.5t57 136.5q0 97 -57 136t-178 39h-241v-350z" />
    <glyph glyph-name="afii10035" unicode="&#x421;" horiz-adv-x="823" 
d="M731 517q-21 89 -100.5 143t-194.5 54q-157 0 -250.5 -95t-93.5 -256q0 -159 91 -255t238 -96q120 0 208 66t110 168h44q-21 -118 -118.5 -192t-241.5 -74q-171 0 -270.5 102.5t-99.5 280.5q0 181 100.5 282t283.5 101q143 0 231.5 -62.5t103.5 -166.5h-41z" />
    <glyph glyph-name="afii10036" unicode="&#x422;" horiz-adv-x="638" 
d="M300 0v697h-298v29h634v-29h-298v-697h-38z" />
    <glyph glyph-name="afii10037" unicode="&#x423;" horiz-adv-x="727" 
d="M8 726h45l314 -593l271 593h42l-301 -639q-21 -41 -48 -63.5t-46.5 -27.5t-48.5 -8q-23 -2 -58 8l8 33q16 -9 36 -9q48 2 70 12.5t40 43.5l15 26z" />
    <glyph glyph-name="afii10038" unicode="&#x424;" horiz-adv-x="946" 
d="M60 368q0 134 99.5 208t286.5 74v76h38v-76q187 0 286.5 -74t99.5 -208q0 -133 -99.5 -207.5t-286.5 -74.5v-90h-38v90q-187 0 -286.5 74.5t-99.5 207.5zM484 622v-507q163 0 254 65t91 188t-90.5 188.5t-254.5 65.5zM446 115v507q-164 0 -254.5 -65.5t-90.5 -188.5
t91 -188t254 -65z" />
    <glyph glyph-name="afii10039" unicode="&#x425;" horiz-adv-x="702" 
d="M38 0l294 370l-278 356h47l252 -328l257 328h47l-278 -357l292 -369h-50l-266 340l-264 -340h-53z" />
    <glyph glyph-name="afii10040" unicode="&#x426;" horiz-adv-x="798" 
d="M90 0v726h39v-694h538v694h38v-694h64v-221h-39v189h-640z" />
    <glyph glyph-name="afii10041" unicode="&#x427;" horiz-adv-x="769" 
d="M63 726h39v-177q0 -61 26 -105.5t69 -68t88.5 -34t93.5 -10.5q146 0 261 38v357h39v-726h-39v336q-127 -35 -272 -35q-42 0 -82.5 7.5t-81.5 26t-72 46t-50 71.5t-19 99v175z" />
    <glyph glyph-name="afii10042" unicode="&#x428;" horiz-adv-x="1120" 
d="M1027 0h-936v726h38v-694h411v694h38v-694h411l1 694h37v-726z" />
    <glyph glyph-name="afii10043" unicode="&#x429;" horiz-adv-x="1118" 
d="M91 0v726h38v-694h411v694h38v-694h410v694h39v-694h62v-221h-38v189h-960z" />
    <glyph glyph-name="afii10044" unicode="&#x42a;" horiz-adv-x="838" 
d="M217 32h306q219 0 219 164q0 49 -24.5 84t-66.5 53.5t-88 27t-98 8.5h-248v-337zM178 0v697h-208v29h247v-330h252q87 0 151 -17t98 -46t49.5 -61.5t15.5 -69.5q0 -107 -60 -154.5t-193 -47.5h-352z" />
    <glyph glyph-name="afii10045" unicode="&#x42b;" horiz-adv-x="961" 
d="M122 32h307q218 0 218 164q0 49 -24.5 84t-66.5 53.5t-88 27t-98 8.5h-248v-337zM84 0v726h38v-330h252q167 0 241 -57t74 -137q0 -106 -60 -154t-193 -48h-352zM829 0v726h37v-726h-37z" />
    <glyph glyph-name="afii10046" unicode="&#x42c;" horiz-adv-x="743" 
d="M122 32h306q219 0 219 164q0 49 -24.5 84t-66.5 53.5t-88 27t-98 8.5h-248v-337zM84 0v726h38v-330h252q87 0 151 -17t98 -46t49.5 -61.5t15.5 -69.5q0 -107 -60 -154.5t-193 -47.5h-351z" />
    <glyph glyph-name="afii10047" unicode="&#x42d;" horiz-adv-x="823" 
d="M319 404h427q-12 143 -104 226.5t-238 83.5q-115 0 -194.5 -54t-100.5 -143h-41q15 104 103.5 166.5t231.5 62.5q183 0 283.5 -101t100.5 -282q0 -178 -99.5 -280.5t-270.5 -102.5q-144 0 -241.5 74t-118.5 192h44q22 -102 110 -168t208 -66q147 0 238 96t91 255v11h-429
v30z" />
    <glyph glyph-name="afii10048" unicode="&#x42e;" horiz-adv-x="1173" 
d="M734 12h1q158 0 251 94.5t93 256.5t-93.5 256.5t-251.5 94.5t-251.5 -94.5t-93.5 -256.5t93.5 -256.5t251.5 -94.5zM86 0v726h38v-321h224q19 166 118.5 253.5t267.5 87.5q183 0 284.5 -101t101.5 -282t-101.5 -282t-284.5 -101q-182 0 -282.5 102t-103.5 294h-224v-376
h-38z" />
    <glyph glyph-name="afii10049" unicode="&#x42f;" horiz-adv-x="712" 
d="M629 0h-39v330h-305l-223 -330h-44l222 333q-56 2 -97 15.5t-64 32.5t-36.5 47.5t-17.5 53.5t-4 57q0 94 63 140.5t196 46.5h349v-726zM298 697q-120 0 -178 -38t-58 -130q0 -89 56 -129t170 -40h302v337h-292z" />
    <glyph glyph-name="afii10065" unicode="&#x430;" 
d="M517 312q-18 -16 -43 -25.5t-46 -12.5t-61.5 -7t-65.5 -8q-39 -6 -59 -9.5t-48 -10.5t-41.5 -15t-28 -20.5t-20 -30t-5.5 -40.5q0 -52 45.5 -86.5t118.5 -34.5q110 0 182 55.5t72 141.5v103zM616 34v-28q-30 -6 -43 -6q-34 0 -45 19.5t-11 92.5q-66 -124 -260 -124
t-194 147q0 66 51 104q25 18 68 28t123 20q20 3 53.5 7t48.5 6t37.5 7t32.5 11t21 16.5t15 25.5t4 36q0 56 -49 85t-140 29q-99 0 -152 -34.5t-53 -94.5h-35q0 76 62 116.5t183 40.5q143 0 193 -61q18 -22 23 -49t5 -76v-250q0 -21 0.5 -28.5t4.5 -20.5t14 -18t27 -5z" />
    <glyph glyph-name="afii10066" unicode="&#x431;" 
d="M80 379l12 26q85 119 226 119q133 0 202.5 -72.5t69.5 -192.5q0 -125 -73 -198t-199 -73q-136 0 -204 79t-68 218q0 62 4.5 109.5t19 99.5t39.5 87.5t69 63t105 37.5q24 4 51.5 7.5t44.5 6t35 5t28 5t19 5.5t12.5 6.5t3.5 8.5h42q0 -16 -13.5 -27t-55.5 -19
q-11 -2 -57.5 -8.5t-81.5 -13t-77 -21t-64 -33.5q-44 -38 -67 -98t-23 -127zM318 16q115 0 175.5 70.5t60.5 172.5q0 107 -59 172t-177 65q-104 0 -171 -67t-67 -163q0 -105 64.5 -177.5t173.5 -72.5z" />
    <glyph glyph-name="afii10067" unicode="&#x432;" horiz-adv-x="584" 
d="M113 281h203q65 0 118 29.5t53 76.5q0 62 -35.5 85.5t-115.5 23.5h-223v-215zM79 0v524h284q86 0 123 -30.5t37 -96.5q0 -102 -129 -127q147 -17 147 -128q0 -75 -40 -108.5t-139 -33.5h-283zM113 257v-228h238q83 0 118.5 26t35.5 86q0 56 -52 86t-137 30h-203z" />
    <glyph glyph-name="afii10068" unicode="&#x433;" horiz-adv-x="536" 
d="M76 0v524h446v-28h-411v-496h-35z" />
    <glyph glyph-name="afii10069" unicode="&#x434;" horiz-adv-x="619" 
d="M100 28h409v468h-333v-193q0 -93 -15.5 -150.5t-60.5 -124.5zM66 28v1q48 60 62 122.5t14 190.5v182h401v-496h62v-198h-34v170h-517v-170h-34v198h46z" />
    <glyph glyph-name="afii10070" unicode="&#x435;" horiz-adv-x="649" 
d="M580 142q-18 -67 -82.5 -110t-170.5 -43q-130 0 -205.5 74t-75.5 200t76 201t205 75q127 0 203 -75t76 -200h-524q7 -122 72 -184t173 -62q87 0 145.5 35t71.5 89h36zM82 288h484q0 105 -69 164t-170 59q-100 0 -168 -59.5t-77 -163.5z" />
    <glyph glyph-name="afii10072" unicode="&#x436;" horiz-adv-x="905" 
d="M434 524h34v-277l341 277h51l-243 -196l279 -328h-45l-262 306l-121 -99v-207h-34v207l-121 99l-262 -306h-45l279 328l-243 196h51l341 -277v277z" />
    <glyph glyph-name="afii10073" unicode="&#x437;" horiz-adv-x="584" 
d="M126 411h-36q0 29 19 55.5t53 43.5q52 28 149 28q114 0 168 -37.5t54 -98.5q0 -41 -31 -74t-96 -41q68 -10 109 -47t41 -100q0 -74 -62 -113t-180 -39q-114 0 -180 42t-66 109h36q0 -51 59.5 -86.5t150.5 -35.5q89 0 147.5 33t58.5 89q0 20 -7.5 41t-25 43.5t-53.5 36.5
t-86 14h-86v24h86q62 0 105.5 25.5t43.5 78.5q0 59 -47.5 83.5t-137.5 24.5q-82 0 -125 -21q-27 -13 -44 -34t-17 -44z" />
    <glyph glyph-name="afii10074" unicode="&#x438;" horiz-adv-x="641" 
d="M79 0v524h34v-482l410 482h41v-524h-34v478l-410 -478h-41z" />
    <glyph glyph-name="afii10075" unicode="&#x439;" horiz-adv-x="641" 
d="M79 0v524h34v-482l410 482h41v-524h-34v478l-410 -478h-41zM188 739h21q0 -42 32 -62t79 -20q50 0 83 19t33 63h21q0 -108 -139 -108q-63 0 -96.5 28.5t-33.5 79.5z" />
    <glyph glyph-name="afii10076" unicode="&#x43a;" horiz-adv-x="590" 
d="M82 0v524h34v-285l352 285h45l-232 -188l288 -336h-41l-271 319l-141 -116v-203h-34z" />
    <glyph glyph-name="afii10077" unicode="&#x43b;" horiz-adv-x="656" 
d="M580 0h-34v496h-379v-121q0 -143 -12 -234q-10 -79 -36.5 -116t-77.5 -37l-40 7l5 28q14 -7 27 -7q41 0 66 38q18 28 26 116.5t8 288.5v65h447v-524z" />
    <glyph glyph-name="afii10078" unicode="&#x43c;" horiz-adv-x="769" 
d="M652 524h39v-524h-33v377l6 101l-263 -460h-34l-262 460l5 -101v-377h-33v524h39l268 -476z" />
    <glyph glyph-name="afii10079" unicode="&#x43d;" horiz-adv-x="641" 
d="M78 0v524h34v-237h418v237h34v-524h-34v259h-418v-259h-34z" />
    <glyph glyph-name="afii10080" unicode="&#x43e;" horiz-adv-x="654" 
d="M608 266q0 -129 -75 -203.5t-206 -74.5q-132 0 -206.5 74.5t-74.5 205.5q0 123 76 196.5t205 73.5q130 0 205.5 -72.5t75.5 -199.5zM572 266q0 112 -67.5 178t-177.5 66t-177.5 -66.5t-67.5 -177.5q0 -112 67.5 -181t177.5 -69q109 0 177 69t68 181z" />
    <glyph glyph-name="afii10081" unicode="&#x43f;" horiz-adv-x="641" 
d="M78 0v524h487v-524h-34v496h-419v-496h-34z" />
    <glyph glyph-name="afii10082" unicode="&#x440;" horiz-adv-x="682" 
d="M116 135v-336h-34v725h34v-139q66 153 244 153q128 0 203 -75.5t75 -200.5q0 -124 -75.5 -199t-202.5 -75q-77 0 -145 35t-99 112zM602 262q0 110 -67.5 179t-175.5 69t-175.5 -68.5t-67.5 -179.5q0 -109 67.5 -177.5t175.5 -68.5t175.5 69t67.5 177z" />
    <glyph glyph-name="afii10083" unicode="&#x441;" horiz-adv-x="612" 
d="M543 168h38q-9 -77 -80 -128.5t-174 -51.5q-130 0 -206 75t-76 203q0 127 76 199.5t206 72.5q101 0 169.5 -44t79.5 -111h-40q-19 60 -75.5 93.5t-135.5 33.5q-107 0 -175.5 -66.5t-68.5 -177.5q0 -112 68.5 -181t177.5 -69q81 0 142 44t74 108z" />
    <glyph glyph-name="afii10084" unicode="&#x442;" horiz-adv-x="514" 
d="M275 0h-35v500h-229v24h493v-24h-229v-500z" />
    <glyph glyph-name="afii10085" unicode="&#x443;" horiz-adv-x="535" 
d="M250 -78q-3 -5 -15 -25.5t-14.5 -24.5t-12.5 -19t-14 -17.5t-14.5 -12.5t-18.5 -11.5t-20.5 -6t-26.5 -5.5t-31 -1q-27 0 -45 6v28q27 -6 54 -6q52 0 84 36t70 121l-248 540h42l223 -515l225 515h39z" />
    <glyph glyph-name="afii10086" unicode="&#x444;" horiz-adv-x="1130" 
d="M581 -202h-34v335q-56 -150 -221 -150q-113 0 -180 76.5t-67 202.5q0 125 67.5 198t183.5 73q69 0 133.5 -42t83.5 -118v319h34v-319q19 76 83.5 118t133.5 42q116 0 183.5 -73t67.5 -198q0 -126 -67 -202.5t-180 -76.5q-165 0 -221 150v-335zM1013 261q0 109 -59 176.5
t-157 67.5q-99 0 -157.5 -71t-58.5 -183q0 -29 12 -75q20 -81 74.5 -123t132.5 -42q97 0 155.5 70t57.5 180zM115 261q0 -110 58.5 -180t154.5 -70q78 0 132.5 41.5t74.5 122.5q12 46 12 76q0 111 -59 182.5t-157 71.5t-157 -67.5t-59 -176.5z" />
    <glyph glyph-name="afii10087" unicode="&#x445;" horiz-adv-x="562" 
d="M64 0h-37l237 278l-211 246h42l189 -221l184 221h41l-208 -244l240 -280h-39l-220 257z" />
    <glyph glyph-name="afii10088" unicode="&#x446;" horiz-adv-x="640" 
d="M113 29h416v495h35v-495h63v-199h-34v170h-514v524h34v-495z" />
    <glyph glyph-name="afii10089" unicode="&#x447;" horiz-adv-x="617" 
d="M540 524v-524h-34v227q-56 -18 -123 -27t-96 -9q-233 0 -233 185v148h33v-148q0 -156 202 -156q34 0 98.5 9.5t118.5 27.5v267h34z" />
    <glyph glyph-name="afii10090" unicode="&#x448;" horiz-adv-x="931" 
d="M77 524h34v-496h339v496h34v-496h339v496h34v-524h-780v524z" />
    <glyph glyph-name="afii10091" unicode="&#x449;" horiz-adv-x="932" 
d="M78 0v524h34v-496h339v496h34v-496h339v496h34v-496h62v-198h-34v170h-808z" />
    <glyph glyph-name="afii10092" unicode="&#x44a;" horiz-adv-x="667" 
d="M195 524v-235h243q184 0 184 -148q0 -74 -43 -107.5t-143 -33.5h-275v496h-179v28h213zM195 261v-232h241q82 0 115.5 25.5t33.5 86.5q0 120 -151 120h-239z" />
    <glyph glyph-name="afii10093" unicode="&#x44b;" horiz-adv-x="828" 
d="M114 524v-235h249q96 0 136.5 -38.5t40.5 -109.5q0 -74 -43 -107.5t-142 -33.5h-276v524h35zM114 261v-232h241q81 0 115 26t34 86q0 120 -151 120h-239zM712 0v524h35v-524h-35z" />
    <glyph glyph-name="afii10094" unicode="&#x44c;" horiz-adv-x="584" 
d="M114 524v-235h249q96 0 137 -38.5t41 -109.5q0 -74 -43 -107.5t-143 -33.5h-275v524h34zM114 261v-232h241q82 0 116 26t34 86q0 120 -152 120h-239z" />
    <glyph glyph-name="afii10095" unicode="&#x44d;" horiz-adv-x="612" 
d="M301 16q108 0 177 69.5t69 176.5h-311v28h311q0 93 -72 156.5t-172 63.5q-79 0 -135.5 -33.5t-75.5 -93.5h-40q11 67 79.5 111t169.5 44q130 0 206 -72.5t76 -199.5q0 -128 -76 -203t-206 -75q-103 0 -174 51.5t-80 128.5h38q13 -64 74 -108t142 -44z" />
    <glyph glyph-name="afii10096" unicode="&#x44e;" horiz-adv-x="905" 
d="M862 266q0 -129 -75 -203.5t-206 -74.5q-132 0 -206.5 74.5t-74.5 204.5h-171v-267h-34v524h34v-233h171q7 116 82 181.5t199 65.5q130 0 205.5 -72.5t75.5 -199.5zM826 266q0 112 -67.5 178t-177.5 66t-178 -66t-68 -177q0 -112 68 -181.5t178 -69.5q109 0 177 69
t68 181z" />
    <glyph glyph-name="afii10097" unicode="&#x44f;" horiz-adv-x="582" 
d="M477 232h-227l-150 -232h-35l146 232q-162 16 -162 146q0 74 45.5 110t144.5 36h272v-524h-34v232zM477 260v236h-238q-81 0 -117 -28t-36 -89q0 -119 152 -119h239z" />
    <glyph glyph-name="afii10071" unicode="&#x451;" horiz-adv-x="649" 
d="M580 146q-17 -67 -85 -110t-168 -43q-130 0 -205.5 74t-75.5 200t76 201t205 75q128 0 204 -75t75 -202h-519q0 -121 65 -182.5t175 -61.5q76 0 133 34t75 90h45zM87 294h479q-1 105 -69.5 163t-169.5 58q-102 0 -171 -59t-69 -162zM217 723v-67h-34v67h34zM457 723v-67
h-34v67h34z" />
    <glyph glyph-name="afii10099" unicode="&#x452;" horiz-adv-x="641" 
d="M78 0v633h-56v24h56v82h35v-82h235v-24h-235v-235q57 139 249 139q93 0 147.5 -54.5t54.5 -153.5v-201q0 -105 -56 -167t-117 -62h-82v24h38q77 0 129.5 58.5t52.5 136.5v186q0 206 -176 206q-101 -1 -170.5 -60t-69.5 -149v-301h-35z" />
    <glyph glyph-name="afii10100" unicode="&#x453;" horiz-adv-x="536" 
d="M76 0v521h446v-24h-411v-497h-35zM300 671l67 115h43l-91 -115h-19z" />
    <glyph glyph-name="afii10101" unicode="&#x454;" horiz-adv-x="612" 
d="M392 286v-24h-310q7 -119 73 -186t172 -67q81 0 142 44t74 109h38q-9 -77 -80 -129.5t-174 -52.5q-129 0 -205.5 76t-76.5 204t76.5 204t205.5 76q100 0 169 -47.5t80 -115.5h-40q-20 62 -76.5 99t-134.5 37q-93 0 -159 -60t-83 -167h309z" />
    <glyph glyph-name="afii10102" unicode="&#x455;" horiz-adv-x="563" 
d="M31 135h37q7 -58 63.5 -92.5t149.5 -34.5q100 0 157 32.5t57 92.5q0 86 -122 106l-163 24q-91 13 -128 42.5t-37 91.5q0 67 59 105t173 38q111 0 172 -39t63 -100h-39q-8 52 -63 83t-144 31q-83 0 -133 -31.5t-50 -82.5q0 -50 37 -74t109 -34l144 -22q88 -13 124 -42
t36 -89q0 -160 -259 -160q-114 0 -176 42t-67 113z" />
    <glyph glyph-name="afii10103" unicode="&#x456;" horiz-adv-x="203" 
d="M84 0v522h35v-522h-35zM84 681v45h35v-45h-35z" />
    <glyph glyph-name="afii10104" unicode="&#x457;" horiz-adv-x="203" 
d="M84 0v522h35v-522h-35zM61 726v-67h-34v67h34zM176 726v-67h-34v67h34z" />
    <glyph glyph-name="afii10105" unicode="&#x458;" horiz-adv-x="200" 
d="M125 -86q0 -70 -20 -95.5t-84 -25.5q-24 0 -56 7l1 29q18 -6 46 -8q28 0 44.5 7t23.5 24.5t8.5 32.5t1.5 44v589h35v-604zM125 719v-67h-34v67h34z" />
    <glyph glyph-name="afii10106" unicode="&#x459;" horiz-adv-x="1049" 
d="M582 284h246q98 0 139 -36t41 -106q0 -74 -43.5 -108t-143.5 -34h-275v496h-379v-121q0 -143 -12 -234q-10 -78 -36 -112t-78 -34l-35 3v10h25q37 0 69 46q17 28 24 115t8 290v62h450v-237zM582 260v-236h237q81 0 116.5 28t35.5 89q0 119 -151 119h-238z" />
    <glyph glyph-name="afii10107" unicode="&#x45a;" horiz-adv-x="1033" 
d="M564 285h246q98 0 140 -36.5t42 -106.5q0 -74 -44 -108t-144 -34h-274v261h-416v-261h-36v520h36v-235h416v235h34v-235zM564 261v-237h238q81 0 116.5 28t35.5 89q0 120 -151 120h-239z" />
    <glyph glyph-name="afii10108" unicode="&#x45b;" horiz-adv-x="641" 
d="M78 0v632h-56v24h56v70h35v-70h235v-24h-235v-228q62 134 241 134q91 0 151.5 -49t60.5 -145v-344h-34v296q0 107 -41.5 160.5t-134.5 53.5q-38 0 -71.5 -7t-65.5 -23.5t-55 -42.5t-37 -67.5t-14 -94.5v-275h-35z" />
    <glyph glyph-name="afii10109" unicode="&#x45c;" horiz-adv-x="590" 
d="M80 0v521h36v-282l351 282h45l-227 -182l284 -339h-47l-267 318l-139 -114v-204h-36zM288 624l66 115h45l-92 -115h-19z" />
    <glyph glyph-name="afii10110" unicode="&#x45e;" horiz-adv-x="535" 
d="M251 -80q-31 -72 -62 -97.5t-105 -25.5q-27 0 -45 6v28q22 -5 54 -5q52 0 84 35.5t70 120.5l-248 540h42l223 -515l225 515h39zM133 737h21q0 -42 32 -62t79 -20q50 0 83 19t33 63h21q0 -108 -139 -108q-63 0 -96.5 28.5t-33.5 79.5z" />
    <glyph glyph-name="afii10193" unicode="&#x45f;" horiz-adv-x="640" 
d="M113 24h417v498h35v-522h-226v-170h-35v170h-226v522h35v-498z" />
    <glyph glyph-name="afii10050" unicode="&#x490;" horiz-adv-x="626" 
d="M130 0h-38v726h446v80h35v-110h-443v-696z" />
    <glyph glyph-name="afii10098" unicode="&#x491;" horiz-adv-x="536" 
d="M76 0v521h411v60h35v-84h-411v-497h-35z" />
    <glyph glyph-name="endash" unicode="&#x2013;" horiz-adv-x="487" 
d="M0 247v24h487v-24h-487z" />
    <glyph glyph-name="emdash" unicode="&#x2014;" horiz-adv-x="930" 
d="M930 271v-24h-930v24h930z" />
    <glyph glyph-name="quoteleft" unicode="&#x2018;" horiz-adv-x="269" 
d="M158 591v-53h-47v104q0 52 10.5 75.5t36.5 31.5v-27q-11 -6 -16 -17t-6 -20t-1 -28v-66h23z" />
    <glyph glyph-name="quoteright" unicode="&#x2019;" horiz-adv-x="494" 
d="M113 700v53h47v-104q0 -52 -10.5 -75.5t-36.5 -31.5v27q11 6 16 17t6 20t1 28v66h-23z" />
    <glyph glyph-name="quotesinglbase" unicode="&#x201a;" horiz-adv-x="269" 
d="M111 0v53h47v-104q0 -52 -10.5 -75.5t-36.5 -31.5v27q11 6 16 17t6 20t1 28v66h-23z" />
    <glyph glyph-name="quotedblleft" unicode="&#x201c;" horiz-adv-x="443" 
d="M158 591v-53h-47v104q0 52 10.5 75.5t36.5 31.5v-27q-11 -6 -16 -17t-6 -20t-1 -28v-66h23zM331 591v-53h-47v104q0 52 10.5 75.5t36.5 31.5v-27q-11 -6 -16 -17t-6 -20t-1 -28v-66h23z" />
    <glyph glyph-name="quotedblright" unicode="&#x201d;" horiz-adv-x="494" 
d="M283 700v53h47v-104q0 -52 -10.5 -75.5t-36.5 -31.5v27q11 6 16 17t6 20t1 28v66h-23zM110 700v53h47v-104q0 -52 -10.5 -75.5t-36.5 -31.5v27q11 6 16 17t6 20t1 28v66h-23z" />
    <glyph glyph-name="quotedblbase" unicode="&#x201e;" horiz-adv-x="443" 
d="M284 -1v53h47v-104q0 -52 -10.5 -75.5t-36.5 -31.5v27q11 6 16 17t6 20t1 28v66h-23zM111 -1v53h47v-104q0 -52 -10.5 -75.5t-36.5 -31.5v27q11 6 16 17t6 20t1 28v66h-23z" />
    <glyph glyph-name="dagger" unicode="&#x2020;" horiz-adv-x="654" 
d="M309 -183v626h-243v30h243v253h36v-253h243v-30h-243v-626h-36z" />
    <glyph glyph-name="bullet" unicode="&#x2022;" horiz-adv-x="470" 
d="M127 300q0 46 30.5 75.5t77.5 29.5q46 0 76.5 -29.5t30.5 -75.5q0 -45 -31 -76t-77 -31t-76.5 30.5t-30.5 76.5z" />
    <glyph glyph-name="ellipsis" unicode="&#x2026;" horiz-adv-x="787" 
d="M9 0v50h48v-50h-48zM364 0v50h47v-50h-47zM719 0v50h48v-50h-48z" />
    <glyph glyph-name="perthousand" unicode="&#x2030;" horiz-adv-x="1268" 
d="M167 571q0 -51 36 -87t87 -36t87.5 36t36.5 87q0 52 -36 87.5t-88 35.5q-51 0 -87 -35.5t-36 -87.5zM136 572q0 65 44.5 110t108.5 45q65 0 110 -45.5t45 -109.5t-45 -109t-110 -45q-63 0 -108 45t-45 109zM243 -16l402 743h36l-405 -743h-33zM512 137q0 -52 36 -87.5
t87 -35.5t87 36t36 87t-36 87t-87 36q-52 0 -87.5 -36t-35.5 -87zM480 138q0 64 45 109t110 45t109.5 -45t44.5 -109t-44.5 -109t-109.5 -45q-64 0 -109.5 45t-45.5 109zM903 138q0 -52 36.5 -88t87.5 -36t87.5 36.5t36.5 87.5t-36.5 87t-87.5 36t-87.5 -35.5t-36.5 -87.5z
M872 138q0 64 45 109t110 45t109.5 -45t44.5 -109t-44.5 -109t-109.5 -45q-64 0 -109.5 45t-45.5 109z" />
    <glyph glyph-name="guilsinglleft" unicode="&#x2039;" horiz-adv-x="292" 
d="M75 276l181 137v-32l-145 -121l145 -121v-32l-181 137v32z" />
    <glyph glyph-name="guilsinglright" unicode="&#x203a;" horiz-adv-x="292" 
d="M76 413l181 -137v-32l-181 -137v32l145 121l-145 121v32z" />
    <glyph glyph-name="Euro" unicode="&#x20ac;" horiz-adv-x="654" 
d="M603 652v-41q-80 82 -198 82q-114 0 -180 -75.5t-79 -181.5h395l-13 -31h-387q-2 -24 -2 -46q0 -11 1 -27t1 -20h350l-12 -31h-333q18 -120 85.5 -190t174.5 -70q111 0 197 83v-43q-32 -30 -84.5 -51t-114.5 -21q-122 0 -197 75t-95 217h-74l13 31h57q-1 11 -1 48
q0 33 1 45h-70l13 31h60q8 59 28.5 109t54.5 91.5t87.5 65.5t121.5 24q126 0 200 -74z" />
    <glyph glyph-name="afii61352" unicode="&#x2116;" horiz-adv-x="1290" 
d="M706 726h39v-726h-45l-590 676v-676h-39v726h45l590 -679v679zM853 440q0 174 184 174q186 0 186 -174q0 -175 -186 -175q-184 0 -184 175zM881 439q0 -74 40 -113t116 -39q77 0 116.5 39t39.5 113q0 152 -156 152q-76 0 -116 -39t-40 -113zM870 185h333v-31h-333v31z
" />
    <glyph glyph-name="trademark" unicode="&#x2122;" horiz-adv-x="848" 
d="M121 753h217v-20h-91v-241h-32v241h-94v20zM409 753h46l96 -226l90 226h46v-261h-26v243l-98 -243h-24l-104 243v-243h-26v261z" />
    </font>
</defs>
</svg>
